<?xml version="1.0" standalone="no"?>
<!DOCTYPE svg PUBLIC "-//W3C//DTD SVG 20010904//EN"
 "http://www.w3.org/TR/2001/REC-SVG-20010904/DTD/svg10.dtd">
<svg version="1.0" xmlns="http://www.w3.org/2000/svg"
 width="512.000000pt" height="512.000000pt" viewBox="0 0 512.000000 512.000000"
 preserveAspectRatio="xMidYMid meet">
<metadata>
Created by potrace 1.16, written by Peter Selinger 2001-2019
</metadata>
<g transform="translate(0.000000,512.000000) scale(0.100000,-0.100000)"
fill="#000000" stroke="none">
<path d="M2400 4684 c-290 -37 -542 -133 -804 -308 -282 -189 -469 -371 -631
-616 -59 -89 -110 -180 -102 -180 2 0 26 32 52 72 335 504 750 804 1277 922
371 83 715 42 1063 -129 218 -106 361 -211 533 -389 210 -218 370 -487 477
-803 l39 -113 -22 -43 c-19 -38 -20 -50 -12 -98 5 -29 13 -126 16 -214 17
-417 -107 -818 -365 -1179 -65 -92 -203 -235 -312 -323 -79 -64 -282 -201
-362 -243 -26 -14 -47 -29 -47 -33 0 -14 247 119 350 188 126 84 259 202 354
314 43 50 82 91 86 91 5 0 10 -6 13 -13 18 -54 219 303 287 513 121 370 133
744 35 1118 -102 389 -312 742 -593 994 -243 220 -558 380 -877 448 -98 20
-368 35 -455 24z"/>
<path d="M2325 4090 c-219 -46 -438 -155 -624 -310 -34 -28 -61 -57 -61 -66 0
-33 31 -24 90 25 170 142 370 246 562 292 179 43 191 47 213 63 19 14 16 15
-35 15 -30 0 -95 -9 -145 -19z"/>
<path d="M2675 4100 c-11 -17 11 -28 73 -36 57 -7 87 5 65 27 -17 17 -129 24
-138 9z"/>
<path d="M2860 4065 c-25 -30 -7 -47 83 -76 115 -37 282 -124 382 -198 44 -33
96 -71 116 -85 36 -27 69 -27 69 -1 0 16 -160 146 -250 205 -80 51 -201 110
-296 144 -83 30 -88 31 -104 11z"/>
<path d="M2528 4054 c-86 -46 -50 -184 47 -184 50 0 74 15 91 57 12 27 13 42
4 69 -22 65 -83 90 -142 58z"/>
<path d="M2179 3866 c-69 -25 -131 -55 -114 -56 6 0 44 13 85 30 41 16 85 29
98 30 13 0 20 4 17 10 -8 13 -9 13 -86 -14z"/>
<path d="M2370 3840 c-68 -17 -76 -17 -87 -3 -11 15 -13 15 -19 0 -9 -23 -1
-48 18 -60 12 -8 46 -6 121 6 127 21 203 21 326 3 l95 -14 43 30 c42 31 52 60
10 34 -19 -13 -32 -12 -106 5 -77 19 -86 19 -122 5 -49 -20 -90 -20 -136 -1
-44 18 -49 18 -143 -5z"/>
<path d="M1845 3769 c-38 -28 -100 -81 -138 -117 -60 -60 -69 -65 -87 -54 -11
6 -26 12 -34 12 -27 0 -157 -163 -205 -257 l-21 -42 26 -20 c48 -38 69 -29
120 51 103 160 227 291 374 394 45 31 79 61 77 68 -8 25 -46 13 -112 -35z"/>
<path d="M3183 3793 c-24 -9 -13 -31 25 -54 118 -72 280 -219 372 -339 32 -41
70 -86 85 -100 15 -14 43 -47 63 -74 86 -117 22 25 -79 175 -85 126 -225 263
-358 350 -72 48 -83 52 -108 42z"/>
<path d="M1167 3708 c-117 -146 -240 -395 -302 -611 -28 -96 -55 -247 -54
-297 0 -19 9 15 20 75 38 217 99 394 205 594 56 106 145 239 170 254 8 4 14
12 14 17 0 21 -20 8 -53 -32z"/>
<path d="M2947 3722 c-10 -10 -17 -25 -17 -34 0 -15 30 -48 45 -48 4 0 30 -14
57 -30 53 -33 83 -33 93 1 9 28 -18 65 -73 100 -53 33 -82 37 -105 11z"/>
<path d="M1959 3641 c-297 -196 -478 -477 -534 -827 -14 -85 -14 -97 0 -117 8
-12 20 -38 25 -57 l9 -35 118 3 c65 2 120 6 122 8 3 3 -7 17 -22 32 -26 25
-34 27 -128 30 -125 5 -128 8 -109 134 24 165 93 339 193 490 54 81 69 87 80
29 7 -36 59 -57 99 -42 31 12 118 116 118 141 0 10 -21 37 -47 60 l-47 41 29
25 c17 13 64 47 105 75 86 59 87 59 73 59 -6 0 -44 -22 -84 -49z"/>
<path d="M2229 3646 c-74 -30 -174 -85 -238 -131 -80 -58 -52 -53 34 5 65 44
160 93 265 138 14 6 18 11 10 11 -8 0 -40 -10 -71 -23z"/>
<path d="M2583 3651 c-32 -20 -49 -53 -38 -71 3 -5 39 -10 79 -10 131 0 275
-48 406 -135 72 -48 96 -50 106 -10 8 33 -8 58 -64 99 -106 77 -249 130 -385
141 -61 5 -77 3 -104 -14z"/>
<path d="M1700 3534 c-80 -75 -229 -284 -203 -284 5 0 19 18 31 39 32 56 126
177 185 239 63 64 54 69 -13 6z"/>
<path d="M3609 3559 c13 -13 44 -50 69 -81 26 -31 48 -55 51 -53 6 7 -112 148
-128 153 -8 3 -4 -6 8 -19z"/>
<path d="M3344 3557 c-47 -25 -45 -61 6 -126 48 -61 69 -73 110 -65 36 8 54
41 41 77 -12 29 -95 113 -119 119 -11 3 -28 1 -38 -5z"/>
<path d="M2505 3530 c-3 -5 -18 -10 -33 -10 -77 0 -284 -83 -328 -131 -14 -16
-15 -23 -5 -47 16 -39 77 -97 86 -83 14 24 193 101 233 101 28 0 -7 -28 -44
-34 -40 -8 -194 -85 -194 -97 0 -15 12 -11 95 32 78 39 165 62 165 42 0 -5
-24 -15 -52 -23 -29 -7 -86 -30 -126 -51 -88 -46 -91 -45 -155 52 l-45 68 -26
-28 c-14 -15 -26 -32 -26 -37 0 -11 171 -161 194 -170 7 -3 41 12 74 34 33 21
82 45 109 51 26 7 57 17 68 21 20 9 20 9 -1 9 -53 2 -171 -47 -221 -92 -32
-28 -42 -13 -13 18 35 37 137 84 197 92 l52 6 3 143 c2 79 2 144 1 144 -1 0
-5 -4 -8 -10z"/>
<path d="M2540 3515 c0 -21 5 -25 30 -25 25 0 30 4 30 25 0 21 -5 25 -30 25
-25 0 -30 -4 -30 -25z"/>
<path d="M2630 3388 l0 -153 33 -15 c25 -12 33 -22 35 -47 2 -18 7 -33 11 -33
14 0 101 210 101 242 0 13 -65 38 -99 38 -24 0 -29 3 -24 16 8 20 76 15 141
-11 48 -19 50 -30 22 -85 -11 -22 -20 -43 -20 -48 0 -16 78 -62 95 -56 8 3 15
1 15 -5 0 -16 -53 -13 -76 4 -30 23 -41 18 -58 -25 -22 -54 -20 -65 10 -85 26
-17 27 -16 66 22 22 21 76 77 119 125 l80 87 -48 35 c-99 73 -287 146 -375
146 l-28 0 0 -152z"/>
<path d="M2540 3430 c0 -17 5 -21 28 -18 16 2 27 9 27 18 0 9 -11 16 -27 18
-23 3 -28 -1 -28 -18z"/>
<path d="M2540 3356 c0 -22 4 -26 31 -26 26 0 30 3 27 23 -2 16 -11 23 -30 25
-24 3 -28 0 -28 -22z"/>
<path d="M3570 3357 c0 -5 13 -27 29 -50 42 -62 85 -151 120 -250 33 -95 50
-131 57 -124 3 2 0 16 -5 30 -9 23 -6 28 31 52 40 26 40 28 36 77 -3 27 -12
56 -20 65 -14 13 -18 13 -40 -1 -14 -9 -32 -14 -41 -10 -9 3 -36 38 -61 77
-46 74 -105 148 -106 134z"/>
<path d="M2979 3209 l-112 -120 25 -26 c26 -25 26 -25 49 -7 13 11 69 65 123
121 l100 103 -24 25 c-13 14 -29 25 -36 25 -6 0 -63 -54 -125 -121z"/>
<path d="M2540 3280 c0 -16 7 -20 30 -20 23 0 30 4 30 20 0 16 -7 20 -30 20
-23 0 -30 -4 -30 -20z"/>
<path d="M962 3213 c-39 -91 -94 -341 -90 -413 1 -33 1 -34 5 -5 18 143 80
389 109 432 16 26 17 33 5 33 -5 0 -18 -21 -29 -47z"/>
<path d="M1992 3224 c-17 -20 -42 -57 -56 -84 l-26 -47 41 -19 c39 -17 41 -17
51 0 5 9 29 42 54 71 l43 54 -38 31 -39 30 -30 -36z"/>
<path d="M3060 3135 c-107 -107 -122 -126 -110 -140 7 -8 15 -13 18 -10 3 2
-1 11 -8 20 -8 10 -9 15 -1 15 12 0 12 -1 16 -40 2 -14 15 -53 29 -88 15 -34
30 -85 33 -112 6 -49 7 -50 39 -50 19 0 34 -5 34 -11 0 -7 -12 -10 -30 -7 -29
4 -30 3 -30 -37 0 -31 6 -47 25 -65 25 -23 25 -50 -1 -29 -17 14 -27 -7 -22
-42 4 -28 26 -36 34 -12 3 10 13 34 22 53 12 25 16 66 17 140 0 89 -4 117 -28
186 -15 45 -24 89 -21 98 5 14 56 51 147 105 20 12 37 28 37 35 0 11 -45 82
-69 108 -4 4 -62 -48 -131 -117z"/>
<path d="M4093 3247 c26 -73 52 -175 68 -261 9 -55 18 -89 18 -75 2 71 -57
321 -81 344 -8 7 -9 4 -5 -8z"/>
<path d="M1317 3232 c-23 -25 -21 -47 5 -64 l22 -15 -22 -74 c-26 -87 -27
-102 -7 -119 9 -7 15 -29 15 -51 0 -71 26 -38 45 58 4 18 2 34 -4 38 -15 9
-14 55 4 105 20 58 19 96 -5 120 -25 25 -32 25 -53 2z"/>
<path d="M1783 3228 c-33 -36 -99 -176 -122 -258 -23 -83 -42 -230 -34 -261 5
-17 13 -20 46 -17 l40 3 17 100 c20 115 63 233 120 328 46 76 48 90 18 111
-31 22 -61 20 -85 -6z"/>
<path d="M3509 3196 c68 -118 138 -340 129 -412 -3 -29 -3 -29 -80 -32 -70 -3
-78 -5 -78 -22 0 -18 7 -20 89 -20 50 0 92 3 94 8 9 14 -26 200 -55 292 -24
77 -106 240 -120 240 -5 0 4 -24 21 -54z"/>
<path d="M2089 3153 c-14 -16 -39 -45 -54 -66 l-29 -39 39 -33 39 -33 -23 -70
c-12 -39 -25 -89 -28 -111 l-6 -41 42 0 c66 0 77 -11 85 -80 8 -65 28 -131 52
-168 l15 -23 26 21 c14 11 30 20 35 20 6 0 34 -22 64 -49 32 -29 77 -58 109
-70 78 -29 89 -28 81 10 -3 17 -6 44 -6 60 0 19 -5 29 -15 29 -55 0 -149 89
-162 153 -6 32 -29 47 -71 47 -16 0 -36 7 -43 16 -11 14 -10 18 6 30 10 8 38
14 60 14 40 0 42 2 54 40 6 21 23 53 38 70 26 32 91 70 118 70 10 0 15 9 15
26 0 23 -3 25 -27 20 -72 -17 -127 -67 -189 -172 -18 -29 -27 -9 -14 29 24 75
86 125 213 176 34 13 35 31 2 31 -30 0 -33 20 -5 38 20 12 45 60 36 69 -14 14
-178 -49 -218 -84 -16 -14 -16 -17 3 -43 42 -56 -5 -93 -64 -50 -24 18 -31 20
-39 9 -23 -35 -51 -96 -64 -141 -12 -40 -19 -48 -38 -48 -40 0 -49 22 -41 96
6 61 8 65 28 61 18 -5 29 5 60 48 20 30 37 58 37 62 0 5 -22 30 -48 56 l-48
47 -25 -27z"/>
<path d="M2576 3143 c4 -16 10 -32 14 -38 5 -5 10 -23 12 -39 3 -30 7 -33 74
-61 54 -22 128 -97 154 -158 26 -59 35 -138 22 -195 -10 -43 -10 -43 29 -67
21 -14 43 -25 48 -25 20 0 36 78 36 170 -1 95 -21 174 -59 223 -13 17 -16 18
-39 2 -27 -18 -51 -12 -77 19 -10 13 -10 22 0 46 16 40 4 54 -71 81 -34 13
-65 31 -74 45 -11 17 -25 24 -45 24 -28 0 -30 -2 -24 -27z"/>
<path d="M3200 3063 c-110 -66 -106 -58 -77 -149 14 -44 28 -103 32 -131 7
-53 7 -53 42 -53 l35 0 -7 58 c-4 31 -16 82 -26 112 -25 70 -27 82 -12 87 13
5 63 -140 63 -181 0 -13 3 -38 6 -55 6 -28 10 -31 45 -31 29 0 39 -4 39 -16 0
-14 -7 -15 -39 -10 l-40 6 -6 -57 c-10 -87 -33 -180 -62 -257 l-26 -70 39 -33
c76 -64 85 -59 133 72 55 152 81 345 47 358 -7 3 -16 20 -19 39 -22 129 -32
178 -37 178 -3 0 -6 12 -6 28 -1 15 -9 43 -18 62 -16 35 -16 35 -11 5 l5 -30
-15 27 c-13 23 -13 31 -3 48 27 42 -6 40 -82 -7z m120 -108 c0 -5 -5 -3 -10 5
-5 8 -10 20 -10 25 0 6 5 3 10 -5 5 -8 10 -19 10 -25z"/>
<path d="M1874 3023 c-59 -133 -83 -333 -41 -341 15 -3 18 0 12 17 -3 12 -3
30 0 41 6 18 15 20 81 20 70 0 74 1 74 23 0 20 30 139 45 178 4 12 -14 30 -70
67 l-76 52 -25 -57z"/>
<path d="M2600 2982 c0 -14 16 -27 56 -47 64 -31 106 -82 123 -150 9 -35 16
-45 32 -45 18 0 20 4 14 33 -14 70 -58 139 -115 178 -69 48 -110 60 -110 31z"/>
<path d="M2645 2900 c50 -25 58 -25 20 0 -16 11 -37 20 -45 20 -8 0 3 -9 25
-20z"/>
<path d="M2406 2788 c-18 -70 12 -152 68 -188 21 -12 39 -20 42 -17 3 2 -11
14 -30 25 -48 29 -70 74 -69 145 1 62 -1 70 -11 35z"/>
<path d="M3806 2802 c-3 -4 -5 -67 -5 -138 0 -134 -16 -243 -52 -360 -30 -97
-31 -73 -2 41 22 86 26 123 27 270 1 169 1 170 -21 170 -22 0 -23 -2 -26 -175
-4 -191 -20 -266 -86 -413 -17 -38 -31 -77 -31 -88 0 -22 74 -64 97 -55 17 7
74 126 106 227 41 125 58 250 55 394 l-3 130 -27 3 c-14 2 -29 -1 -32 -6z"/>
<path d="M2725 2772 c15 -72 -35 -160 -108 -185 -35 -13 -38 -16 -16 -16 33
-1 87 35 116 78 25 37 33 134 12 147 -8 4 -9 -3 -4 -24z"/>
<path d="M1287 2764 c-4 -4 -7 -68 -7 -142 0 -135 20 -274 55 -372 8 -24 14
-45 11 -47 -6 -7 -46 111 -63 187 -10 49 -16 126 -17 220 l-1 145 -27 3 c-26
3 -26 3 -33 -81 -17 -203 52 -511 152 -684 28 -48 32 -49 72 -29 56 30 57 38
13 128 -90 185 -125 343 -120 543 3 111 1 130 -12 133 -9 1 -19 0 -23 -4z"/>
<path d="M747 2733 c-4 -3 -7 -79 -7 -168 0 -119 6 -196 21 -285 21 -127 93
-370 109 -370 20 0 18 22 -10 106 -23 68 -80 302 -80 329 0 3 6 5 13 5 11 0
13 35 10 183 -3 100 -6 188 -8 195 -5 13 -37 17 -48 5z"/>
<path d="M1877 2723 c-12 -11 -7 -115 8 -186 17 -82 73 -202 109 -237 l27 -24
39 40 40 39 -26 38 c-43 64 -76 165 -81 255 l-6 82 -52 0 c-28 0 -55 -3 -58
-7z"/>
<path d="M2020 2674 c0 -67 23 -161 55 -224 35 -69 47 -76 81 -46 l29 25 -31
58 c-38 70 -64 153 -64 205 0 37 -1 38 -35 38 l-35 0 0 -56z"/>
<path d="M1754 2674 c-10 -39 3 -122 32 -208 27 -83 26 -100 -6 -71 -20 18
-41 69 -60 141 -12 49 -24 54 -122 54 -89 0 -118 -11 -118 -48 l0 -28 68 4
c43 3 70 9 75 18 16 29 37 15 37 -23 0 -48 70 -220 118 -291 12 -18 96 22 137
66 l30 34 -37 76 c-23 47 -44 111 -54 164 -13 67 -21 89 -36 93 -10 4 -23 15
-28 26 -15 26 -28 24 -36 -7z"/>
<path d="M3157 2636 c-3 -35 -15 -90 -26 -122 l-20 -59 24 -25 c17 -16 28 -21
35 -14 14 14 46 147 53 222 l7 62 -34 0 -33 0 -6 -64z"/>
<path d="M2780 2681 c0 -6 10 -17 22 -26 21 -14 23 -14 30 2 11 30 9 33 -22
33 -16 0 -30 -4 -30 -9z"/>
<path d="M3474 2676 c-3 -8 -4 -23 -1 -33 4 -14 5 -13 6 5 1 20 6 23 34 20
l32 -3 -2 -85 c-1 -49 -11 -119 -24 -165 -11 -44 -23 -90 -26 -102 -6 -25 28
-63 57 -63 23 0 27 25 5 34 -12 4 -13 11 -4 33 30 79 64 307 52 352 -5 18 -13
21 -64 21 -43 0 -61 -4 -65 -14z"/>
<path d="M2751 2564 c-29 -30 -74 -55 -116 -64 -26 -5 -31 -12 -41 -58 -14
-62 -6 -65 66 -27 l45 24 53 -52 53 -52 19 23 c10 12 22 22 26 22 4 0 31 -22
60 -50 54 -51 68 -58 79 -40 3 6 21 10 39 10 33 0 76 -35 89 -72 4 -10 16 -18
27 -18 12 0 34 -7 49 -15 24 -12 31 -12 40 -1 13 15 2 25 -111 109 -43 31
-111 86 -152 122 -41 36 -78 65 -83 65 -5 0 -16 -9 -26 -20 -9 -11 -25 -20
-35 -20 -10 0 -23 -5 -28 -10 -8 -8 -15 -6 -24 5 -11 14 -10 19 8 37 18 18 23
19 37 8 13 -11 19 -10 35 5 11 10 17 22 14 27 -7 11 -85 68 -93 68 -3 0 -17
-12 -30 -26z"/>
<path d="M3462 2545 c0 -16 2 -22 5 -12 2 9 2 23 0 30 -3 6 -5 -1 -5 -18z"/>
<path d="M2949 2514 c-10 -12 -9 -18 4 -31 18 -18 47 -11 47 11 0 25 -35 39
-51 20z"/>
<path d="M2261 2480 c-19 -11 -9 -45 14 -45 13 0 21 8 23 21 3 23 -17 37 -37
24z"/>
<path d="M3451 2474 c0 -11 3 -14 6 -6 3 7 2 16 -1 19 -3 4 -6 -2 -5 -13z"/>
<path d="M1494 2424 c11 -94 74 -260 128 -336 10 -15 35 -32 56 -38 28 -8 47
-24 77 -66 45 -63 151 -166 194 -188 28 -15 29 -14 55 26 l26 40 -88 84 c-132
123 -230 278 -282 444 l-27 85 -73 3 -73 3 7 -57z"/>
<path d="M3014 2449 c-8 -13 -2 -20 64 -72 44 -35 62 -43 71 -34 19 19 12 30
-36 67 -50 38 -90 54 -99 39z"/>
<path d="M941 2422 c-1 -45 36 -213 66 -297 51 -140 185 -382 262 -472 35 -41
33 -24 -2 25 -157 214 -253 425 -302 663 -13 63 -24 99 -24 81z"/>
<path d="M2323 2428 c-15 -26 109 -85 195 -94 56 -6 62 -5 62 12 0 16 -9 19
-57 21 -43 1 -74 10 -125 36 -43 23 -70 31 -75 25z"/>
<path d="M2185 2374 l-39 -36 24 -19 c34 -26 41 -24 81 17 l34 35 -24 20 c-13
10 -26 19 -30 19 -4 0 -25 -16 -46 -36z"/>
<path d="M2643 2379 c-29 -9 -31 -12 -26 -43 6 -41 -11 -76 -37 -76 -13 0 -20
-7 -20 -20 0 -28 -18 -25 -26 4 -4 19 -16 27 -53 36 -26 6 -73 24 -106 41
l-59 29 -38 -37 -38 -37 52 -33 c121 -77 260 -104 400 -80 48 8 110 26 139 39
l53 24 -30 33 -30 33 -39 -16 c-22 -10 -49 -15 -61 -12 -27 7 -48 57 -40 96 6
33 6 33 -41 19z"/>
<path d="M4145 2320 c-4 -28 -13 -73 -20 -100 -7 -28 -10 -52 -5 -55 7 -4 19
45 39 158 5 26 5 47 1 47 -5 0 -11 -23 -15 -50z"/>
<path d="M2045 2250 c-79 -74 -95 -80 -136 -44 -21 19 -38 18 -71 -4 -27 -18
-27 -19 -11 -43 30 -44 115 -139 133 -149 15 -8 36 11 124 113 58 67 106 126
106 132 0 5 -16 23 -35 38 l-35 28 -75 -71z"/>
<path d="M1936 2274 c-9 -8 -16 -19 -16 -24 0 -5 7 -16 16 -24 8 -9 19 -16 24
-16 14 0 40 30 40 45 0 8 -9 19 -19 25 -25 13 -27 13 -45 -6z"/>
<path d="M2994 2245 c-15 -23 -15 -27 0 -50 20 -30 56 -33 79 -7 21 23 22 46
1 66 -24 24 -61 20 -80 -9z"/>
<path d="M2201 2209 l-24 -31 29 -23 c54 -44 140 -84 224 -104 46 -11 87 -24
92 -29 5 -5 8 -36 6 -68 l-3 -59 -35 -3 c-78 -8 -262 56 -341 118 -60 49 -47
73 14 26 70 -53 184 -99 289 -115 l48 -8 0 47 0 46 -73 18 c-82 19 -198 74
-239 113 l-27 26 -48 -53 c-61 -68 -103 -121 -103 -130 0 -14 119 -90 202
-130 46 -22 115 -47 153 -55 116 -24 375 -16 424 14 10 7 10 14 -3 39 -9 17
-16 38 -16 47 0 29 20 15 36 -25 9 -22 23 -40 31 -40 22 0 164 76 201 108 l33
27 -87 115 c-47 63 -91 114 -98 113 -6 -1 -51 -17 -101 -34 -165 -59 -344 -42
-488 46 -32 19 -61 35 -65 34 -4 0 -18 -14 -31 -30z m593 -193 c21 -45 20 -63
-5 -76 -32 -17 -153 -40 -162 -31 -5 5 26 16 68 26 82 18 95 30 76 71 -9 21
-16 25 -39 20 -74 -14 -112 -17 -112 -9 0 11 77 29 126 32 27 1 34 -4 48 -33z"/>
<path d="M3090 2160 c-6 -11 -22 -23 -35 -26 -14 -3 -25 -11 -25 -18 0 -6 22
-35 48 -65 l48 -54 47 55 c26 30 47 60 47 66 0 17 -71 62 -97 62 -12 0 -27 -9
-33 -20z"/>
<path d="M3380 1978 c-95 -126 -263 -256 -417 -324 -77 -33 -106 -52 -63 -39
48 13 190 84 252 126 97 65 302 279 281 292 -5 3 -28 -22 -53 -55z"/>
<path d="M3529 1948 c-29 -46 -97 -126 -149 -178 -148 -149 -288 -232 -481
-286 -56 -15 -97 -30 -90 -32 6 -2 51 8 100 22 49 14 94 26 98 26 5 0 19 -20
31 -45 12 -25 26 -45 32 -45 20 0 126 59 199 111 175 123 426 408 406 461 -7
17 -57 48 -77 48 -8 0 -39 -37 -69 -82z"/>
<path d="M958 1974 c-16 -8 -28 -22 -28 -31 0 -25 115 -238 185 -343 84 -125
187 -244 283 -326 98 -85 119 -95 139 -69 13 18 11 23 -20 50 -200 176 -217
195 -181 209 11 4 45 -21 110 -84 153 -146 462 -337 638 -395 47 -15 51 -15
75 3 17 13 26 29 26 48 0 27 -6 31 -125 79 -246 101 -422 210 -580 361 -54 52
-103 94 -110 94 -8 0 -21 -7 -31 -16 -10 -9 -26 -13 -37 -10 -38 12 -188 221
-267 374 -21 39 -40 72 -44 72 -3 -1 -18 -8 -33 -16z"/>
<path d="M1710 1966 c0 -2 8 -10 18 -17 15 -13 16 -12 3 4 -13 16 -21 21 -21
13z"/>
<path d="M1557 1939 c-19 -11 -47 -67 -47 -94 0 -20 127 -153 217 -226 69 -57
208 -148 247 -163 14 -5 29 3 58 31 66 65 44 117 -64 148 -92 26 -242 146
-329 263 -41 54 -51 59 -82 41z m85 -116 c57 -68 179 -169 262 -217 67 -39 78
-52 51 -62 -35 -14 -249 145 -340 252 -51 61 -62 90 -30 82 7 -2 32 -26 57
-55z"/>
<path d="M1760 1905 c13 -14 26 -25 28 -25 3 0 -5 11 -18 25 -13 14 -26 25
-28 25 -3 0 5 -11 18 -25z"/>
<path d="M1868 1791 c79 -77 102 -93 102 -71 0 6 -6 10 -13 10 -7 0 -49 32
-93 71 l-79 71 83 -81z"/>
<path d="M2040 1811 c-15 -29 -5 -44 50 -76 36 -21 50 -35 50 -51 0 -26 59
-54 165 -79 142 -33 130 -27 133 -70 5 -60 14 -65 111 -65 105 0 131 13 131
66 0 37 6 41 88 63 34 10 46 19 62 52 25 48 13 85 -23 75 -12 -3 -62 -13 -112
-22 -187 -34 -388 1 -585 101 -59 30 -57 30 -70 6z"/>
<path d="M3785 1654 c-94 -118 -204 -217 -385 -347 l-25 -17 30 14 c41 19 147
98 226 168 85 75 244 259 222 257 -4 0 -35 -34 -68 -75z"/>
<path d="M2112 1648 c9 -27 308 -121 308 -97 0 5 -10 11 -22 14 -13 2 -53 11
-90 20 -37 8 -97 28 -134 45 -36 16 -64 24 -62 18z"/>
<path d="M2851 1633 c-1 -28 -34 -50 -88 -59 -44 -7 -69 -26 -58 -43 3 -6 13
-3 24 8 11 11 37 22 59 26 48 8 75 34 69 67 -4 23 -4 23 -6 1z"/>
<path d="M2175 1528 c25 -15 152 -48 179 -47 17 0 -176 59 -194 58 -3 0 4 -5
15 -11z"/>
<path d="M1803 1504 c-4 -11 3 -23 18 -35 46 -37 260 -139 342 -163 108 -33
140 -36 145 -14 2 13 -8 20 -40 27 -142 35 -292 98 -394 166 -60 40 -62 41
-71 19z"/>
<path d="M3850 1371 c-185 -188 -348 -317 -545 -430 -122 -70 -97 -64 44 10
145 76 260 152 372 246 117 98 289 281 282 299 -3 8 -8 14 -12 13 -3 0 -67
-62 -141 -138z"/>
<path d="M2137 1463 c-15 -14 -7 -43 12 -43 26 0 36 17 21 35 -14 16 -23 19
-33 8z"/>
<path d="M2490 1222 c-50 -49 -59 -94 -32 -154 29 -66 103 -96 166 -67 14 7
27 18 30 25 3 8 -6 6 -27 -6 -39 -24 -59 -25 -101 -5 -92 44 -86 194 8 225 27
9 44 9 71 0 37 -12 85 -61 86 -88 0 -10 3 -12 5 -5 9 20 -25 73 -59 93 -18 11
-49 20 -71 20 -31 0 -45 -7 -76 -38z"/>
<path d="M2525 1175 c-74 -73 27 -173 103 -102 37 34 28 88 -19 112 -39 21
-56 19 -84 -10z"/>
<path d="M3010 694 c0 -136 3 -175 13 -172 7 3 14 32 17 79 l5 74 52 3 51 3
44 -68 c25 -37 52 -74 62 -82 34 -28 27 -1 -16 61 -62 87 -63 91 -23 139 37
43 41 54 26 64 -5 3 -24 -15 -42 -40 l-32 -45 -64 0 -63 0 0 80 c0 64 -3 80
-15 80 -13 0 -15 -26 -15 -176z"/>
<path d="M1440 818 c10 -24 35 -97 55 -163 20 -65 38 -121 40 -123 8 -9 25 10
25 29 0 41 32 160 42 157 6 -2 24 -38 40 -79 49 -126 52 -128 86 -44 30 72 25
106 -6 50 l-23 -40 6 72 c7 94 17 118 54 131 38 13 41 32 6 32 -50 0 -93 -77
-96 -173 0 -14 -9 -2 -26 36 -39 88 -70 77 -94 -35 l-12 -53 -32 100 c-36 116
-50 145 -70 145 -11 0 -10 -8 5 -42z"/>
<path d="M2484 789 c-16 -18 -19 -37 -19 -121 0 -93 2 -101 24 -119 31 -25
161 -28 161 -4 0 12 -14 15 -70 15 -58 0 -71 3 -80 19 -20 39 -13 50 38 53 26
2 47 8 47 13 0 6 -21 11 -47 13 l-48 3 0 43 c0 63 14 75 89 78 41 2 66 8 69
16 3 9 -16 12 -71 12 -62 0 -77 -3 -93 -21z"/>
<path d="M3634 760 c-38 -15 -54 -50 -54 -116 0 -90 22 -114 102 -114 75 0 77
23 2 28 -56 4 -74 15 -74 48 0 23 3 24 75 24 60 0 75 3 75 15 0 12 -15 15 -75
15 -72 0 -75 1 -75 23 0 39 29 56 100 59 36 2 65 8 65 13 0 13 -113 17 -141 5z"/>
<path d="M2021 650 c-34 -61 -61 -112 -61 -113 0 -6 260 1 261 7 3 16 -113
216 -125 216 -8 0 -41 -50 -75 -110z m104 23 c15 -27 36 -61 45 -78 l18 -30
-89 -2 c-49 0 -89 1 -89 4 0 8 81 153 85 153 2 0 15 -21 30 -47z"/>
</g>
</svg>